<?xml version="1.0" encoding="utf-8"?>
<!-- Generator: Adobe Illustrator 22.0.1, SVG Export Plug-In . SVG Version: 6.00 Build 0)  -->
<svg version="1.1" id="Layer_1" xmlns="http://www.w3.org/2000/svg" xmlns:xlink="http://www.w3.org/1999/xlink" x="0px" y="0px"
	 viewBox="0 0 100 100" style="enable-background:new 0 0 100 100;" xml:space="preserve">
<title>dribbble</title>
<path d="M50,92.7C26.4,92.7,7.3,73.6,7.3,50S26.4,7.3,50,7.3S92.7,26.4,92.7,50C92.7,73.6,73.6,92.7,50,92.7z M86,55.8
	c-7.4-2.1-15.1-2.7-22.7-1.6c3.1,8.4,5.5,17.1,7.1,26C78.7,74.6,84.4,65.8,86,55.8z M64.2,83.6c-1.7-9.4-4.3-18.7-7.8-27.6l-0.2,0.1
	c-20.6,7.2-27.9,21.4-28.6,22.8C38.1,87,52.1,88.8,64.2,83.6L64.2,83.6z M22.9,74.4c0.8-1.4,10.9-18,29.6-24.1
	c0.5-0.2,0.9-0.3,1.4-0.4c-0.9-2.1-1.9-4.1-3-6.2c-12.2,3.5-24.8,5.2-37.5,5.2c0,0.4,0,0.7,0,1.1C13.6,59.1,16.9,67.8,22.9,74.4
	L22.9,74.4z M14.3,42.6C25.7,42.5,37,41,48,38.1c-4.1-7.3-8.6-14.3-13.5-21.1C24.1,21.9,16.7,31.4,14.3,42.6z M41.5,14.6
	c5,6.8,9.5,13.9,13.6,21.3c13-4.9,18.4-12.2,19.1-13.2C65.3,14.9,53,11.8,41.5,14.6z M78.2,27c-0.8,1-6.9,8.9-20.4,14.4
	c0.9,1.7,1.7,3.5,2.4,5.3c0.3,0.6,0.5,1.3,0.8,1.9c12.1-1.5,24.2,0.9,25.4,1.2C86.4,41.4,83.5,33.4,78.2,27z"/>
</svg>
