<?xml version="1.0" encoding="utf-8"?>
<!-- Generator: Adobe Illustrator 19.2.1, SVG Export Plug-In . SVG Version: 6.00 Build 0)  -->
<!DOCTYPE svg PUBLIC "-//W3C//DTD SVG 1.1//EN" "http://www.w3.org/Graphics/SVG/1.1/DTD/svg11.dtd">
<svg version="1.1" id="Layer_1" xmlns="http://www.w3.org/2000/svg" xmlns:xlink="http://www.w3.org/1999/xlink" x="0px" y="0px"
	 viewBox="0 0 35 35" style="enable-background:new 0 0 35 35;" xml:space="preserve">
<style type="text/css">
	.st3{fill:none;}
</style>
<path d="M7,27h4V15H7V27z M29,16c0-1.1-0.9-2-2-2h-6.3l0.9-4.6l0-0.3c0-0.4-0.2-0.8-0.4-1.1L20.2,7l-6.6,6.6
	C13.2,13.9,13,14.4,13,15v10c0,1.1,0.9,2,2,2h9c0.8,0,1.5-0.5,1.8-1.2l3-7.1C29,18.5,29,18.3,29,18V16L29,16L29,16z"/>
<path class="st3" d="M0,0h35v35H0V0z"/>
</svg>
