<?xml version="1.0" encoding="utf-8"?>
<!-- Generator: Adobe Illustrator 19.2.1, SVG Export Plug-In . SVG Version: 6.00 Build 0)  -->
<!DOCTYPE svg PUBLIC "-//W3C//DTD SVG 1.1//EN" "http://www.w3.org/Graphics/SVG/1.1/DTD/svg11.dtd">
<svg version="1.1" id="Layer_1" xmlns="http://www.w3.org/2000/svg" xmlns:xlink="http://www.w3.org/1999/xlink" x="0px" y="0px"
	 viewBox="0 0 24 16" style="enable-background:new 0 0 24 16;" xml:space="preserve">
<style type="text/css">
	.st3{fill:none;}
</style>
<path class="st3" d="M0-8h24v24H0V-8z"/>
<path d="M4,2h18V0H4C2.9,0,2,0.9,2,2v11H0v3h14v-3H4V2z M23,4h-6c-0.5,0-1,0.4-1,1v10c0,0.5,0.5,1,1,1h6c0.5,0,1-0.5,1-1V5
	C24,4.4,23.5,4,23,4z M22,13h-4V6h4V13z"/>
</svg>
