<svg width="323" height="48" viewBox="0 0 323 48" fill="none" xmlns="http://www.w3.org/2000/svg">
<path d="M21.7842 31.25C22.0142 31.94 22.1522 32.492 22.1522 32.952C22.1522 34.516 20.8642 34.976 18.5642 35.068V37H34.8022V35.068C33.4682 34.884 32.5482 34.562 32.0882 33.366L20.6342 4.616H11.0202L12.5842 8.434L3.01616 33.366C2.51016 34.608 1.59016 34.884 0.348164 35.068V37H10.2382V35.068C7.75416 34.93 6.46616 34.424 6.46616 32.906C6.46616 32.446 6.60416 31.894 6.83416 31.204L8.39816 27.018H20.1282L21.7842 31.25ZM14.1022 11.792L19.1162 24.534H9.31816L14.1022 11.792ZM44.3536 4.708L43.6636 16.254H45.5496C48.9076 9.032 50.1496 6.594 53.2316 6.594H54.7496V32.17C54.7496 34.562 53.9676 34.746 50.9776 35.068V37H67.5376V35.068C64.5476 34.746 63.7656 34.562 63.7656 32.17V6.594H65.2836C68.3656 6.594 69.6076 9.032 72.9656 16.254H74.8516L74.1616 4.708H44.3536ZM87.594 11.746H86.168L76.6 14.414V15.702L79.13 17.266V33.412C79.13 34.884 78.394 35.068 76.554 35.206V37H90.17V35.206C88.33 35.068 87.594 34.884 87.594 33.412V11.746ZM83.454 9.722C86.214 9.722 87.962 7.744 87.962 5.444C87.962 3.144 86.214 1.212 83.454 1.212C80.602 1.212 78.946 3.144 78.946 5.444C78.946 7.744 80.602 9.722 83.454 9.722ZM124.255 33.412C124.255 34.884 123.795 35.068 121.955 35.206V37H135.295V35.206C133.501 35.068 132.765 34.884 132.765 33.412V19.06C132.765 14.23 130.373 11.746 126.095 11.746C122.139 11.746 119.333 14.046 117.677 16.53C117.033 13.172 114.825 11.746 111.283 11.746C107.189 11.746 104.705 13.908 102.957 16.438L103.141 11.746H101.577L91.9633 14.414V15.702L94.4933 17.266V33.412C94.4933 34.884 93.7573 35.068 91.9173 35.206V37H105.303V35.206C103.463 35.068 102.957 34.884 102.957 33.412V17.772C104.107 17.174 105.211 16.714 106.637 16.714C108.707 16.714 109.351 17.864 109.351 19.842V33.412C109.351 34.884 108.891 35.068 107.051 35.206V37H120.161V35.206C118.321 35.068 117.861 34.884 117.861 33.412V17.772C119.011 17.22 120.115 16.714 121.495 16.714C123.611 16.714 124.255 17.864 124.255 19.842V33.412ZM148.94 11.746C142.316 11.746 136.658 16.99 136.658 25.178C136.658 32.906 141.81 37.46 148.618 37.46C154.414 37.46 157.956 34.102 159.198 29.042L158.324 28.49C156.576 30.79 154.414 31.848 151.47 31.848C147.284 31.848 144.248 28.444 144.34 22.97H159.014V21.82C159.014 15.978 155.61 11.746 148.94 11.746ZM148.388 13.678C150.872 13.678 151.746 16.392 151.746 20.854H144.386C144.616 16.576 145.858 13.678 148.388 13.678ZM171.64 0.981998H170.214L160.6 3.098V4.478L163.13 5.766V33.412C163.13 34.884 162.394 35.068 160.554 35.206V37H174.216V35.206C172.376 35.068 171.64 34.884 171.64 33.412V0.981998ZM191.301 28.628L186.471 16.898C186.287 16.346 186.149 16.024 186.149 15.61C186.149 14.598 186.747 14.322 189.185 14V12.206H174.465V14C176.075 14.506 176.351 14.828 176.811 15.84L187.299 38.15L186.563 39.76C185.735 41.692 184.401 42.428 181.825 42.428C180.399 42.428 179.433 42.198 178.237 41.968V45.234C178.881 46.43 180.307 47.166 182.101 47.166C185.321 47.166 187.023 45.05 188.725 41.002L199.213 15.84C199.627 14.828 199.995 14.506 201.559 14V12.206H193.187V14C195.579 14.322 196.223 14.598 196.223 15.61C196.223 16.024 196.085 16.346 195.855 16.944L191.301 28.628ZM224.628 6.962C228.906 6.962 231.252 9.63 231.252 13.908C231.252 18.554 228.86 21.222 224.674 21.222H223.294V6.962H224.628ZM223.294 23.522H224.996L230.24 32.124C231.62 34.424 232.816 35.988 234.104 37H244.638V35.068C242.476 34.976 241.602 34.102 239.716 31.342L233.322 22.188C236.726 21.084 240.222 18.554 240.222 13.862C240.222 8.204 235.3 4.708 227.802 4.708H210.92V6.64C214.002 6.962 214.278 7.33 214.278 9.722V31.986C214.278 34.378 214.002 34.746 210.92 35.068V37H226.606V35.068C223.57 34.746 223.294 34.378 223.294 31.986V23.522ZM256.753 11.746C250.129 11.746 244.471 16.99 244.471 25.178C244.471 32.906 249.623 37.46 256.431 37.46C262.227 37.46 265.769 34.102 267.011 29.042L266.137 28.49C264.389 30.79 262.227 31.848 259.283 31.848C255.097 31.848 252.061 28.444 252.153 22.97H266.827V21.82C266.827 15.978 263.423 11.746 256.753 11.746ZM256.201 13.678C258.685 13.678 259.559 16.392 259.559 20.854H252.199C252.429 16.576 253.671 13.678 256.201 13.678ZM280.04 32.906C277.74 32.906 276.866 31.158 276.866 28.812C276.866 26.19 277.924 25.316 279.534 24.718L282.064 23.752V32.262C281.328 32.676 280.776 32.906 280.04 32.906ZM290.436 19.75C290.436 13.77 286.572 11.746 280.132 11.746C274.566 11.746 270.242 13.678 270.242 17.864C270.242 19.52 271.162 20.624 272.496 21.084L277.602 20.394C277.372 19.29 277.188 18.232 277.188 17.174C277.188 15.012 277.878 13.54 279.672 13.54C281.466 13.54 282.064 14.966 282.064 17.082V21.774L274.75 24.35C271.484 25.5 268.678 27.156 268.678 31.158C268.678 35.114 271.392 37.322 275.256 37.322C278.66 37.322 280.868 35.528 282.202 33.596C282.892 36.034 284.824 37.46 287.492 37.46C290.068 37.46 292.046 36.494 293.564 34.976L293.242 33.734C292.92 33.872 292.322 34.01 291.678 34.01C290.574 34.01 290.436 33.044 290.436 31.94V19.75ZM307.857 14.506C310.249 14.506 311.123 16.162 311.123 19.244V32.032C310.295 32.492 309.421 32.676 308.501 32.676C304.913 32.676 302.889 28.812 302.889 23.154C302.889 17.956 304.591 14.506 307.857 14.506ZM311.123 5.766V13.31C310.065 12.436 308.455 11.93 306.569 11.93C299.807 11.93 294.379 16.76 294.379 25.73C294.379 33.228 298.243 37.46 303.671 37.46C306.753 37.46 309.237 35.942 311.123 33.136L310.985 37.46H312.549L322.301 35.85V34.056L321.197 34.01C319.725 33.964 319.633 33.274 319.633 31.71V0.981998H318.207L308.593 3.098V4.478L311.123 5.766Z" fill="white"/>
</svg>
