<?xml version="1.0" encoding="utf-8"?>
<!-- Generator: Adobe Illustrator 22.0.1, SVG Export Plug-In . SVG Version: 6.00 Build 0)  -->
<svg version="1.1" id="Layer_1" xmlns="http://www.w3.org/2000/svg" xmlns:xlink="http://www.w3.org/1999/xlink" x="0px" y="0px"
	 viewBox="0 0 405 405" style="enable-background:new 0 0 405 405;" xml:space="preserve">
<path d="M394.6,81.8c-14,6.2-29.1,10.4-44.9,12.3c16.1-9.7,28.5-25,34.4-43.3c-15.1,9-31.8,15.5-49.7,19
	c-14.3-15.2-34.6-24.7-57.1-24.7c-43.2,0-78.2,35-78.2,78.2c0,6.1,0.7,12.1,2,17.8c-65-3.3-122.6-34.4-161.2-81.7
	c-6.7,11.5-10.6,25-10.6,39.3c0,27.1,13.8,51.1,34.8,65.1c-12.8-0.4-24.9-3.9-35.4-9.8c0,0.3,0,0.7,0,1c0,37.9,27,69.5,62.7,76.7
	c-6.6,1.8-13.5,2.7-20.6,2.7c-5,0-9.9-0.5-14.7-1.4c10,31.1,38.8,53.7,73,54.3c-26.8,21-60.5,33.5-97.1,33.5
	c-6.3,0-12.5-0.4-18.7-1.1c34.6,22.2,75.7,35.1,119.9,35.1c143.8,0,222.5-119.2,222.5-222.5c0-3.4-0.1-6.8-0.2-10.1
	C370.9,111.3,384.1,97.5,394.6,81.8z"/>
</svg>
